<svg data-root-id="3322390683175" xmlns="http://www.w3.org/2000/svg" x="276.97" y="256.76" viewBox="1.5399999618530273 15.970000267028809 203.0600128173828 61.470001220703125" fontUrl="http://fonts.gstatic.com/s/pacifico/v16/FwZY7-Qmy14u9lezJ96A4sijpFu_.ttf" zoom="1" data-layer-role="brandName" class="gob__card__svg__trick" preserveAspectRatio="xMidYMid meet" fill="#232323"><g data-horizontal-grow="left" data-vertical-center="false" zoom="1" root="[object Object]" style="fill: rgb(0, 0, 0);"><path d="M7.52 57.55Q4.80 57.55 3.17 55.57Q1.54 53.59 1.54 50.38L1.54 50.38Q1.54 46.86 3.17 43.71Q4.80 40.57 7.50 38.65Q10.21 36.74 13.24 36.74L13.24 36.74Q14.21 36.74 14.54 37.11Q14.87 37.49 15.09 38.46L15.09 38.46Q16.02 38.28 17.03 38.28L17.03 38.28Q19.18 38.28 19.18 39.82L19.18 39.82Q19.18 40.74 18.52 44.22L18.52 44.22Q17.51 49.28 17.51 51.26L17.51 51.26Q17.51 51.92 17.84 52.32Q18.17 52.71 18.70 52.71L18.70 52.71Q19.54 52.71 20.72 51.63Q21.91 50.56 23.94 48.14L23.94 48.14Q24.46 47.52 25.12 47.52L25.12 47.52Q25.70 47.52 26.03 48.05Q26.36 48.58 26.36 49.50L26.36 49.50Q26.36 51.26 25.52 52.23L25.52 52.23Q23.72 54.47 21.69 56.01Q19.67 57.55 17.78 57.55L17.78 57.55Q16.32 57.55 15.11 56.56Q13.90 55.57 13.29 53.86L13.29 53.86Q11 57.55 7.52 57.55L7.52 57.55ZM9.11 53.11Q10.08 53.11 10.96 51.96Q11.84 50.82 12.23 48.93L12.23 48.93L13.86 40.83Q12.01 40.88 10.45 42.22Q8.89 43.56 7.96 45.76Q7.04 47.96 7.04 50.42L7.04 50.42Q7.04 51.79 7.59 52.45Q8.14 53.11 9.11 53.11L9.11 53.11ZM46.29 47.52Q46.86 47.52 47.19 48.05Q47.52 48.58 47.52 49.50L47.52 49.50Q47.52 51.26 46.68 52.23L46.68 52.23Q44.79 54.56 42.61 56.06Q40.44 57.55 37.66 57.55L37.66 57.55Q35.33 57.55 33.88 55.88L33.88 55.88Q31.37 57.51 28.64 57.55L28.64 57.55Q28.07 66.04 26.05 71.74Q24.02 77.44 20.11 77.44L20.11 77.44Q17.73 77.44 16.59 75.72Q15.44 74.01 15.44 70.97L15.44 70.97Q15.44 66.66 17.42 60.92Q19.40 55.18 23.54 48.27L23.54 48.27Q23.54 41.84 23.45 39.34L23.45 39.34Q23.41 38.06 24.46 37.31Q25.52 36.56 27.10 36.56L27.10 36.56Q28.03 36.56 28.45 36.94Q28.86 37.31 28.91 38.41L28.91 38.41Q28.91 39.51 28.95 40.04L28.95 40.04Q30.36 38.28 31.72 37.51Q33.09 36.74 34.63 36.74L34.63 36.74Q37.09 36.74 38.65 38.72Q40.22 40.70 40.22 43.91L40.22 43.91Q40.22 46.24 39.47 48.44Q38.72 50.64 37.40 52.45L37.40 52.45Q38.32 52.71 38.94 52.71L38.94 52.71Q40.39 52.71 41.71 51.66Q43.03 50.60 45.10 48.14L45.10 48.14Q45.63 47.52 46.29 47.52L46.29 47.52ZM28.86 53.33Q30.45 52.98 31.79 51.59Q33.13 50.20 33.92 48.16Q34.72 46.11 34.72 43.87L34.72 43.87Q34.72 42.55 34.19 41.87Q33.66 41.18 32.78 41.18L32.78 41.18Q31.20 41.18 28.95 44.53L28.95 44.53Q28.91 46.46 28.91 50.20L28.91 50.20Q28.91 52.23 28.86 53.33L28.86 53.33ZM20.46 73.13Q21.65 73.13 22.44 67.96Q23.23 62.79 23.45 55.09L23.45 55.09Q21.56 59.49 20.46 63.49Q19.36 67.50 19.36 70.22L19.36 70.22Q19.36 71.63 19.69 72.38Q20.02 73.13 20.46 73.13L20.46 73.13ZM67.45 47.52Q68.02 47.52 68.35 48.05Q68.68 48.58 68.68 49.50L68.68 49.50Q68.68 51.26 67.85 52.23L67.85 52.23Q65.96 54.56 63.78 56.06Q61.60 57.55 58.83 57.55L58.83 57.55Q56.50 57.55 55.04 55.88L55.04 55.88Q52.54 57.51 49.81 57.55L49.81 57.55Q49.24 66.04 47.21 71.74Q45.19 77.44 41.27 77.44L41.27 77.44Q38.90 77.44 37.75 75.72Q36.61 74.01 36.61 70.97L36.61 70.97Q36.61 66.66 38.59 60.92Q40.57 55.18 44.70 48.27L44.70 48.27Q44.70 41.84 44.62 39.34L44.62 39.34Q44.57 38.06 45.63 37.31Q46.68 36.56 48.27 36.56L48.27 36.56Q49.19 36.56 49.61 36.94Q50.03 37.31 50.07 38.41L50.07 38.41Q50.07 39.51 50.12 40.04L50.12 40.04Q51.52 38.28 52.89 37.51Q54.25 36.74 55.79 36.74L55.79 36.74Q58.26 36.74 59.82 38.72Q61.38 40.70 61.38 43.91L61.38 43.91Q61.38 46.24 60.63 48.44Q59.88 50.64 58.56 52.45L58.56 52.45Q59.49 52.71 60.10 52.71L60.10 52.71Q61.56 52.71 62.88 51.66Q64.20 50.60 66.26 48.14L66.26 48.14Q66.79 47.52 67.45 47.52L67.45 47.52ZM50.03 53.33Q51.61 52.98 52.95 51.59Q54.30 50.20 55.09 48.16Q55.88 46.11 55.88 43.87L55.88 43.87Q55.88 42.55 55.35 41.87Q54.82 41.18 53.94 41.18L53.94 41.18Q52.36 41.18 50.12 44.53L50.12 44.53Q50.07 46.46 50.07 50.20L50.07 50.20Q50.07 52.23 50.03 53.33L50.03 53.33ZM41.62 73.13Q42.81 73.13 43.60 67.96Q44.40 62.79 44.62 55.09L44.62 55.09Q42.72 59.49 41.62 63.49Q40.52 67.50 40.52 70.22L40.52 70.22Q40.52 71.63 40.85 72.38Q41.18 73.13 41.62 73.13L41.62 73.13ZM70.88 33.92Q69.04 33.92 68.11 33.07Q67.19 32.21 67.19 30.67L67.19 30.67Q67.19 29.13 68.40 28.09Q69.61 27.06 71.41 27.06L71.41 27.06Q73.04 27.06 74.05 27.85Q75.06 28.64 75.06 30.10L75.06 30.10Q75.06 31.86 73.92 32.89Q72.78 33.92 70.88 33.92L70.88 33.92ZM70.53 57.55Q67.67 57.55 66.37 55.53Q65.08 53.50 65.08 50.16L65.08 50.16Q65.08 48.18 65.58 45.08Q66.09 41.98 66.88 39.29L66.88 39.29Q67.28 37.88 67.94 37.36Q68.60 36.83 70.05 36.83L70.05 36.83Q72.29 36.83 72.29 38.32L72.29 38.32Q72.29 39.42 71.46 43.43L71.46 43.43Q70.40 48.27 70.40 49.98L70.40 49.98Q70.40 51.30 70.75 52.01Q71.10 52.71 71.94 52.71L71.94 52.71Q72.73 52.71 73.92 51.61Q75.11 50.51 77.09 48.14L77.09 48.14Q77.62 47.52 78.28 47.52L78.28 47.52Q78.85 47.52 79.18 48.05Q79.51 48.58 79.51 49.50L79.51 49.50Q79.51 51.26 78.67 52.23L78.67 52.23Q74.32 57.55 70.53 57.55L70.53 57.55ZM84.04 57.55Q82.41 57.55 81.71 56.83Q81.00 56.10 81.00 54.08L81.00 54.08Q81.00 52.71 81.29 50.58Q81.58 48.44 82.24 44.70L82.24 44.70Q83.38 37.80 84.04 32.74L84.04 32.74Q84.44 29.57 84.44 27.46L84.44 27.46Q84.44 25.48 82.98 25.48L82.98 25.48Q81.84 25.48 80.23 26.64Q78.63 27.81 76.69 30.36L76.69 30.36Q76.08 31.20 75.33 31.20L75.33 31.20Q74.71 31.20 74.25 30.60Q73.79 30.01 73.79 29.26L73.79 29.26Q73.79 28.56 74.07 27.83Q74.36 27.10 75.02 26.18L75.02 26.18Q77.13 23.23 79.73 21.63Q82.32 20.02 84.92 20.02L84.92 20.02Q87.34 20.02 88.64 21.56Q89.94 23.10 89.94 26.05L89.94 26.05Q89.94 27.24 89.72 28.84Q89.50 30.45 89.32 31.46Q89.14 32.47 89.06 32.87L89.06 32.87Q91.56 25.70 94.69 22.86Q97.81 20.02 101.55 20.02L101.55 20.02Q104.41 20.02 106.06 22.04Q107.71 24.07 107.71 27.76L107.71 27.76Q107.71 29.22 107.32 31.37L107.32 31.37Q109.52 25.30 112.46 22.66Q115.41 20.02 119.24 20.02L119.24 20.02Q122.32 20.02 123.97 22.00Q125.62 23.98 125.62 27.54L125.62 27.54Q125.62 29.48 125.05 32.25L125.05 32.25L122.36 44.84Q121.92 47.04 121.92 48.62L121.92 48.62Q121.92 50.47 122.78 51.39Q123.64 52.32 125.18 52.32L125.18 52.32Q126.63 52.32 128.02 51.35Q129.40 50.38 131.30 48.14L131.30 48.14Q131.82 47.52 132.48 47.52L132.48 47.52Q133.06 47.52 133.39 48.05Q133.72 48.58 133.72 49.50L133.72 49.50Q133.72 51.22 132.88 52.23L132.88 52.23Q130.59 55.00 128.35 56.28Q126.10 57.55 123.64 57.55L123.64 57.55Q119.90 57.55 117.79 55.33Q115.68 53.11 115.68 49.37L115.68 49.37Q115.68 46.77 116.73 41.84L116.73 41.84L118.49 33.79Q118.58 33.40 118.80 32.38Q119.02 31.37 119.15 30.47Q119.28 29.57 119.28 28.69L119.28 28.69Q119.28 27.15 118.69 26.38Q118.10 25.61 117.00 25.61L117.00 25.61Q114.93 25.61 112.66 28.27Q110.40 30.93 108.35 37.09Q106.30 43.25 105.03 53.11L105.03 53.11Q104.72 55.75 103.95 56.65Q103.18 57.55 101.46 57.55L101.46 57.55Q99.97 57.55 99.29 56.85Q98.60 56.14 98.60 54.21L98.60 54.21Q98.60 52.40 99.09 49.48Q99.57 46.55 100.32 42.59L100.32 42.59Q102.34 31.94 102.34 28.86L102.34 28.86Q102.34 27.19 101.71 26.40Q101.07 25.61 99.79 25.61L99.79 25.61Q97.64 25.61 95.35 28.05Q93.06 30.49 90.88 36.72Q88.70 42.94 87.25 53.55L87.25 53.55Q86.94 55.79 86.35 56.67Q85.76 57.55 84.04 57.55L84.04 57.55ZM149.78 47.52Q150.35 47.52 150.68 48.05Q151.01 48.58 151.01 49.50L151.01 49.50Q151.01 51.26 150.17 52.23L150.17 52.23Q148.54 54.21 145.57 55.88Q142.60 57.55 139.22 57.55L139.22 57.55Q134.60 57.55 132.04 55.04Q129.49 52.54 129.49 48.18L129.49 48.18Q129.49 45.14 130.77 42.53Q132.04 39.91 134.31 38.37Q136.58 36.83 139.44 36.83L139.44 36.83Q141.99 36.83 143.53 38.35Q145.07 39.86 145.07 42.46L145.07 42.46Q145.07 45.50 142.89 47.67Q140.71 49.85 135.52 51.13L135.52 51.13Q136.62 53.15 139.70 53.15L139.70 53.15Q141.68 53.15 144.21 51.77Q146.74 50.38 148.59 48.14L148.59 48.14Q149.12 47.52 149.78 47.52L149.78 47.52ZM138.69 41.14Q137.06 41.14 135.94 43.03Q134.82 44.92 134.82 47.61L134.82 47.61L134.82 47.70Q137.41 47.08 138.91 45.85Q140.40 44.62 140.40 42.99L140.40 42.99Q140.40 42.15 139.94 41.65Q139.48 41.14 138.69 41.14L138.69 41.14ZM152.64 57.55Q149.91 57.55 148.28 55.57Q146.65 53.59 146.65 50.38L146.65 50.38Q146.65 46.86 148.28 43.71Q149.91 40.57 152.61 38.65Q155.32 36.74 158.36 36.74L158.36 36.74Q159.32 36.74 159.65 37.11Q159.98 37.49 160.20 38.46L160.20 38.46Q161.13 38.28 162.14 38.28L162.14 38.28Q164.30 38.28 164.30 39.82L164.30 39.82Q164.30 40.74 163.64 44.22L163.64 44.22Q162.62 49.28 162.62 51.26L162.62 51.26Q162.62 51.92 162.95 52.32Q163.28 52.71 163.81 52.71L163.81 52.71Q164.65 52.71 165.84 51.63Q167.02 50.56 169.05 48.14L169.05 48.14Q169.58 47.52 170.24 47.52L170.24 47.52Q170.81 47.52 171.14 48.05Q171.47 48.58 171.47 49.50L171.47 49.50Q171.47 51.26 170.63 52.23L170.63 52.23Q168.83 54.47 166.80 56.01Q164.78 57.55 162.89 57.55L162.89 57.55Q161.44 57.55 160.23 56.56Q159.02 55.57 158.40 53.86L158.40 53.86Q156.11 57.55 152.64 57.55L152.64 57.55ZM154.22 53.11Q155.19 53.11 156.07 51.96Q156.95 50.82 157.34 48.93L157.34 48.93L158.97 40.83Q157.12 40.88 155.56 42.22Q154 43.56 153.08 45.76Q152.15 47.96 152.15 50.42L152.15 50.42Q152.15 51.79 152.70 52.45Q153.25 53.11 154.22 53.11L154.22 53.11ZM184.58 47.52Q185.15 47.52 185.48 48.05Q185.81 48.58 185.81 49.50L185.81 49.50Q185.81 51.26 184.98 52.23L184.98 52.23Q183.08 54.56 180.86 56.06Q178.64 57.55 175.82 57.55L175.82 57.55Q171.95 57.55 170.08 54.03Q168.21 50.51 168.21 44.92L168.21 44.92Q168.21 39.56 169.60 32.69Q170.98 25.83 173.69 20.90Q176.40 15.97 180.14 15.97L180.14 15.97Q182.25 15.97 183.46 17.93Q184.67 19.89 184.67 23.54L184.67 23.54Q184.67 28.78 181.76 35.68Q178.86 42.59 173.89 49.37L173.89 49.37Q174.20 51.17 174.90 51.94Q175.60 52.71 176.75 52.71L176.75 52.71Q178.55 52.71 179.92 51.68Q181.28 50.64 183.39 48.14L183.39 48.14Q183.92 47.52 184.58 47.52L184.58 47.52ZM179.17 20.33Q178.16 20.33 176.88 23.98Q175.60 27.63 174.64 33.04Q173.67 38.46 173.58 43.43L173.58 43.43Q176.70 38.28 178.55 33.11Q180.40 27.94 180.40 23.67L180.40 23.67Q180.40 20.33 179.17 20.33L179.17 20.33ZM190.43 58.52Q188.14 58.52 186.93 57.46Q185.72 56.41 185.72 55.09L185.72 55.09Q185.72 53.94 186.56 53.11Q187.40 52.27 189.02 52.27L189.02 52.27Q189.60 52.27 190.37 52.38Q191.14 52.49 191.53 52.54L191.53 52.54Q191.49 51.39 191.03 50.38Q190.56 49.37 189.86 48.42Q189.16 47.48 188.54 46.77L188.54 46.77Q187.18 49.37 185.83 51.08Q184.49 52.80 182.91 54.34L182.91 54.34Q182.12 55.13 181.24 55.13L181.24 55.13Q180.53 55.13 180.09 54.63Q179.65 54.12 179.65 53.37L179.65 53.37Q179.65 52.49 180.27 51.74L180.27 51.74L180.84 51.04Q183.26 48.05 184.49 46.11L184.49 46.11Q185.24 44.84 186.25 42.70Q187.26 40.57 188.23 38.28L188.23 38.28Q189.07 36.34 191.71 36.34L191.71 36.34Q192.94 36.34 193.42 36.56Q193.91 36.78 193.91 37.27L193.91 37.27Q193.91 37.53 193.73 38.10Q193.56 38.68 193.25 39.25L193.25 39.25Q192.46 40.83 192.46 41.93L192.46 41.93Q192.46 42.59 192.92 43.38Q193.38 44.18 194.35 45.36L194.35 45.36Q195.76 47.21 196.48 48.51Q197.21 49.81 197.21 51.35L197.21 51.35Q197.21 51.79 197.12 52.58L197.12 52.58Q199.28 51.74 202.18 48.14L202.18 48.14Q202.71 47.52 203.37 47.52L203.37 47.52Q203.94 47.52 204.27 48.05Q204.60 48.58 204.60 49.50L204.60 49.50Q204.60 51.17 203.76 52.23L203.76 52.23Q201.56 54.96 199.56 55.95Q197.56 56.94 194.61 57.02L194.61 57.02Q192.85 58.52 190.43 58.52L190.43 58.52Z" transform="translate(0, 0)"></path></g></svg>