<svg xmlns="http://www.w3.org/2000/svg" viewBox="0 0 575 575" class="roots-wrapper"><g transform="rotate(0 0 0)"><svg data-root-id="0276564383081" xmlns="http://www.w3.org/2000/svg" xmlns:xlink="http://www.w3.org/1999/xlink" version="1.1" id="Logo" x="176.46" y="118.07" viewBox="51.28899383544922 48.0670051574707 180.88397216796875 187.03797912597656" enable-background="new 0 0 283.46 283.46" xml:space="preserve" height="239" width="230.69" preserveAspectRatio="xMinYMin" zoom="1" data-layer-role="icon" style="position: absolute; height: 239px; width: 230.692px; top: 118.075px; left: 176.459px;"><path fill="#F58345" d="M166.681,111.228c0-0.024,0-0.049,0-0.073h-49.056c7.616,5.487,22.973,13.32,49.056,13.938V111.228z" name="Layer 1" zoom="1" style="fill: rgb(245, 131, 69);"/><path fill="#FAA634" d="M169.997,131.765c-46.333,0-62.992-21.013-63.677-21.907l-4.095-5.335h104.639    c7.325,0,10.979-5.522,7.057-11.71c-15.146-23.887-41.812-39.746-72.189-39.746c-47.189,0-85.443,38.254-85.443,85.442    c0,5.423,0.528,10.72,1.493,15.861l70.363-0.004c0.606-2.734,1.964-5.249,3.993-7.278c2.812-2.813,6.549-4.361,10.525-4.361    l28.907,0.003c1.831,0,3.316,1.484,3.316,3.316c0,1.831-1.485,3.316-3.316,3.316l-28.907-0.004c-2.204,0-4.276,0.858-5.834,2.418    s-2.417,3.631-2.416,5.831c0.001,2.207,0.859,4.279,2.417,5.839c1.558,1.557,3.627,2.414,5.829,2.414c0.004,0,28.912,0,28.912,0    c1.831,0,3.316,1.485,3.316,3.316c0,1.832-1.485,3.316-3.316,3.316h-28.906c-3.979,0-7.714-1.548-10.524-4.357    c-1.993-1.993-3.337-4.458-3.959-7.138l-55.614,0.003c-7.327,0-11.798,5.791-8.797,12.474    c13.36,29.751,43.234,50.475,77.961,50.475c47.187,0,85.441-38.254,85.441-85.441c0-9.57-1.597-18.763-4.5-27.354h-49.358    c0,0.073,0,20.61,0,20.61H169.997z M171.567,160.986h-29.306c-1.831,0-3.316-1.485-3.316-3.316s1.485-3.316,3.316-3.316h29.306    c1.832,0,3.316,1.485,3.316,3.316S173.399,160.986,171.567,160.986z" name="Layer 2" zoom="1" style="fill: rgb(250, 166, 52);"/><path fill="#EC2227" d="M166.681,111.228c0-0.024,0-0.049,0-0.073h-49.056c7.616,5.487,22.973,13.32,49.056,13.938V111.228z" name="Layer 3" zoom="1" style="fill: rgb(236, 34, 39);"/><path fill="#EC2227" d="M212.453,138.509c0-9.698-1.957-18.939-5.49-27.354h-33.649c0,0.024,0,0.048,0,0.073v20.537h-3.316    c-46.333,0-62.992-21.013-63.677-21.907l-4.095-5.335h101.532c-12.021-21.892-35.287-36.735-62.026-36.735    c-39.06,0-70.723,31.664-70.723,70.722c0,5.636,0.575,10.909,1.623,15.861l55.513-0.004c0.606-2.734,1.964-5.249,3.993-7.278    c2.812-2.813,6.549-4.361,10.525-4.361l28.907,0.003c1.831,0,3.316,1.484,3.316,3.316c0,1.831-1.485,3.316-3.316,3.316    l-28.907-0.004c-2.204,0-4.276,0.858-5.834,2.418s-2.417,3.631-2.416,5.831c0.001,2.207,0.859,4.279,2.417,5.839    c1.558,1.557,3.627,2.414,5.829,2.414c0,0,0.002,0,0.004,0h28.907c1.831,0,3.316,1.485,3.316,3.316    c0,1.832-1.485,3.316-3.316,3.316h-28.906c-0.002,0-0.006,0-0.008,0c-3.971,0-7.706-1.548-10.516-4.357    c-1.993-1.993-3.337-4.458-3.959-7.138l-53.805,0.002c20.313,63.832,131.157,69.105,131.157,69.105    c-11.532-5.416-26.701-16.755-34.817-27.092C195.315,191.941,212.453,167.235,212.453,138.509z M171.567,160.986h-29.306    c-1.831,0-3.316-1.485-3.316-3.316s1.485-3.316,3.316-3.316h29.306c1.832,0,3.316,1.485,3.316,3.316    S173.399,160.986,171.567,160.986z" name="Layer 4" zoom="1" style="fill: rgb(236, 34, 39);"/></svg></g><g transform="rotate(0 0 0)"><svg data-root-id="3322390683175" xmlns="http://www.w3.org/2000/svg" x="153.66" y="375" viewBox="2.0299999713897705 21.049999237060547 267.6700134277344 81.02999877929688" height="81.03" width="267.67" fontUrl="http://fonts.gstatic.com/s/pacifico/v16/FwZY7-Qmy14u9lezJ96A4sijpFu_.ttf" zoom="1" data-layer-role="brandName" style="position: absolute; top: 375px; left: 153.665px; width: 267.67px; height: 81.03px;"><g data-horizontal-grow="left" data-vertical-center="false" zoom="1" root="[object Object]" style="fill: rgb(0, 0, 0);"><path d="M9.92 75.86Q6.32 75.86 4.18 73.25Q2.03 70.64 2.03 66.41L2.03 66.41Q2.03 61.77 4.18 57.62Q6.32 53.48 9.89 50.95Q13.46 48.43 17.46 48.43L17.46 48.43Q18.73 48.43 19.17 48.92Q19.60 49.42 19.89 50.69L19.89 50.69Q21.11 50.46 22.45 50.46L22.45 50.46Q25.29 50.46 25.29 52.49L25.29 52.49Q25.29 53.71 24.42 58.29L24.42 58.29Q23.08 64.96 23.08 67.57L23.08 67.57Q23.08 68.44 23.52 68.96Q23.95 69.48 24.65 69.48L24.65 69.48Q25.75 69.48 27.32 68.06Q28.88 66.64 31.55 63.45L31.55 63.45Q32.25 62.64 33.12 62.64L33.12 62.64Q33.87 62.64 34.31 63.34Q34.74 64.03 34.74 65.25L34.74 65.25Q34.74 67.57 33.64 68.85L33.64 68.85Q31.26 71.80 28.59 73.83Q25.93 75.86 23.43 75.86L23.43 75.86Q21.52 75.86 19.92 74.56Q18.33 73.25 17.52 70.99L17.52 70.99Q14.50 75.86 9.92 75.86L9.92 75.86ZM12.01 70.01Q13.28 70.01 14.44 68.50Q15.60 66.99 16.12 64.50L16.12 64.50L18.27 53.82Q15.83 53.88 13.78 55.65Q11.72 57.42 10.50 60.32Q9.28 63.22 9.28 66.47L9.28 66.47Q9.28 68.27 10.01 69.14Q10.73 70.01 12.01 70.01L12.01 70.01ZM61.02 62.64Q61.77 62.64 62.20 63.34Q62.64 64.03 62.64 65.25L62.64 65.25Q62.64 67.57 61.54 68.85L61.54 68.85Q59.04 71.92 56.17 73.89Q53.30 75.86 49.65 75.86L49.65 75.86Q46.57 75.86 44.66 73.66L44.66 73.66Q41.35 75.81 37.76 75.86L37.76 75.86Q37.00 87.06 34.34 94.57Q31.67 102.08 26.51 102.08L26.51 102.08Q23.37 102.08 21.87 99.82Q20.36 97.56 20.36 93.55L20.36 93.55Q20.36 87.87 22.97 80.30Q25.58 72.73 31.03 63.63L31.03 63.63Q31.03 55.16 30.91 51.85L30.91 51.85Q30.86 50.17 32.25 49.18Q33.64 48.20 35.73 48.20L35.73 48.20Q36.95 48.20 37.50 48.69Q38.05 49.18 38.11 50.63L38.11 50.63Q38.11 52.08 38.16 52.78L38.16 52.78Q40.02 50.46 41.82 49.44Q43.62 48.43 45.65 48.43L45.65 48.43Q48.89 48.43 50.95 51.04Q53.01 53.65 53.01 57.88L53.01 57.88Q53.01 60.96 52.03 63.86Q51.04 66.76 49.30 69.14L49.30 69.14Q50.52 69.48 51.33 69.48L51.33 69.48Q53.24 69.48 54.98 68.09Q56.72 66.70 59.45 63.45L59.45 63.45Q60.15 62.64 61.02 62.64L61.02 62.64ZM38.05 70.30Q40.14 69.83 41.91 68.00Q43.67 66.18 44.72 63.48Q45.76 60.78 45.76 57.83L45.76 57.83Q45.76 56.09 45.07 55.19Q44.37 54.29 43.21 54.29L43.21 54.29Q41.12 54.29 38.16 58.70L38.16 58.70Q38.11 61.25 38.11 66.18L38.11 66.18Q38.11 68.85 38.05 70.30L38.05 70.30ZM26.97 96.40Q28.54 96.40 29.58 89.58Q30.62 82.77 30.91 72.62L30.91 72.62Q28.42 78.42 26.97 83.69Q25.52 88.97 25.52 92.57L25.52 92.57Q25.52 94.42 25.96 95.41Q26.39 96.40 26.97 96.40L26.97 96.40ZM88.91 62.64Q89.67 62.64 90.10 63.34Q90.54 64.03 90.54 65.25L90.54 65.25Q90.54 67.57 89.44 68.85L89.44 68.85Q86.94 71.92 84.07 73.89Q81.20 75.86 77.55 75.86L77.55 75.86Q74.47 75.86 72.56 73.66L72.56 73.66Q69.25 75.81 65.66 75.86L65.66 75.86Q64.90 87.06 62.23 94.57Q59.57 102.08 54.40 102.08L54.40 102.08Q51.27 102.08 49.76 99.82Q48.26 97.56 48.26 93.55L48.26 93.55Q48.26 87.87 50.87 80.30Q53.48 72.73 58.93 63.63L58.93 63.63Q58.93 55.16 58.81 51.85L58.81 51.85Q58.75 50.17 60.15 49.18Q61.54 48.20 63.63 48.20L63.63 48.20Q64.84 48.20 65.39 48.69Q65.95 49.18 66.00 50.63L66.00 50.63Q66.00 52.08 66.06 52.78L66.06 52.78Q67.92 50.46 69.72 49.44Q71.51 48.43 73.54 48.43L73.54 48.43Q76.79 48.43 78.85 51.04Q80.91 53.65 80.91 57.88L80.91 57.88Q80.91 60.96 79.92 63.86Q78.94 66.76 77.20 69.14L77.20 69.14Q78.42 69.48 79.23 69.48L79.23 69.48Q81.14 69.48 82.88 68.09Q84.62 66.70 87.35 63.45L87.35 63.45Q88.04 62.64 88.91 62.64L88.91 62.64ZM65.95 70.30Q68.03 69.83 69.80 68.00Q71.57 66.18 72.62 63.48Q73.66 60.78 73.66 57.83L73.66 57.83Q73.66 56.09 72.96 55.19Q72.27 54.29 71.11 54.29L71.11 54.29Q69.02 54.29 66.06 58.70L66.06 58.70Q66.00 61.25 66.00 66.18L66.00 66.18Q66.00 68.85 65.95 70.30L65.95 70.30ZM54.87 96.40Q56.43 96.40 57.48 89.58Q58.52 82.77 58.81 72.62L58.81 72.62Q56.32 78.42 54.87 83.69Q53.42 88.97 53.42 92.57L53.42 92.57Q53.42 94.42 53.85 95.41Q54.29 96.40 54.87 96.40L54.87 96.40ZM93.44 44.72Q91.00 44.72 89.78 43.59Q88.57 42.46 88.57 40.43L88.57 40.43Q88.57 38.40 90.16 37.03Q91.76 35.67 94.13 35.67L94.13 35.67Q96.28 35.67 97.61 36.71Q98.95 37.76 98.95 39.67L98.95 39.67Q98.95 41.99 97.44 43.35Q95.93 44.72 93.44 44.72L93.44 44.72ZM92.97 75.86Q89.20 75.86 87.49 73.20Q85.78 70.53 85.78 66.12L85.78 66.12Q85.78 63.51 86.45 59.42Q87.12 55.33 88.16 51.79L88.16 51.79Q88.68 49.94 89.55 49.24Q90.42 48.55 92.34 48.55L92.34 48.55Q95.29 48.55 95.29 50.52L95.29 50.52Q95.29 51.97 94.19 57.25L94.19 57.25Q92.80 63.63 92.80 65.89L92.80 65.89Q92.80 67.63 93.26 68.56Q93.73 69.48 94.83 69.48L94.83 69.48Q95.87 69.48 97.44 68.03Q99.01 66.58 101.62 63.45L101.62 63.45Q102.31 62.64 103.18 62.64L103.18 62.64Q103.94 62.64 104.37 63.34Q104.81 64.03 104.81 65.25L104.81 65.25Q104.81 67.57 103.70 68.85L103.70 68.85Q97.96 75.86 92.97 75.86L92.97 75.86ZM110.78 75.86Q108.63 75.86 107.71 74.91Q106.78 73.95 106.78 71.28L106.78 71.28Q106.78 69.48 107.16 66.67Q107.53 63.86 108.40 58.93L108.40 58.93Q109.91 49.82 110.78 43.15L110.78 43.15Q111.30 38.98 111.30 36.19L111.30 36.19Q111.30 33.58 109.39 33.58L109.39 33.58Q107.88 33.58 105.76 35.12Q103.65 36.66 101.09 40.02L101.09 40.02Q100.28 41.12 99.30 41.12L99.30 41.12Q98.48 41.12 97.88 40.34Q97.27 39.56 97.27 38.57L97.27 38.57Q97.27 37.64 97.64 36.68Q98.02 35.73 98.89 34.51L98.89 34.51Q101.67 30.62 105.10 28.51Q108.52 26.39 111.94 26.39L111.94 26.39Q115.13 26.39 116.84 28.42Q118.55 30.45 118.55 34.34L118.55 34.34Q118.55 35.90 118.26 38.02Q117.97 40.14 117.74 41.47Q117.51 42.80 117.39 43.33L117.39 43.33Q120.70 33.87 124.82 30.13Q128.93 26.39 133.86 26.39L133.86 26.39Q137.63 26.39 139.81 29.06Q141.98 31.73 141.98 36.60L141.98 36.60Q141.98 38.51 141.46 41.35L141.46 41.35Q144.36 33.35 148.25 29.87Q152.13 26.39 157.18 26.39L157.18 26.39Q161.24 26.39 163.42 29.00Q165.59 31.61 165.59 36.31L165.59 36.31Q165.59 38.86 164.84 42.51L164.84 42.51L161.30 59.10Q160.72 62.00 160.72 64.09L160.72 64.09Q160.72 66.53 161.85 67.74Q162.98 68.96 165.01 68.96L165.01 68.96Q166.92 68.96 168.75 67.69Q170.58 66.41 173.07 63.45L173.07 63.45Q173.77 62.64 174.64 62.64L174.64 62.64Q175.39 62.64 175.83 63.34Q176.26 64.03 176.26 65.25L176.26 65.25Q176.26 67.51 175.16 68.85L175.16 68.85Q172.14 72.50 169.19 74.18Q166.23 75.86 162.98 75.86L162.98 75.86Q158.05 75.86 155.27 72.94Q152.48 70.01 152.48 65.08L152.48 65.08Q152.48 61.65 153.87 55.16L153.87 55.16L156.19 44.54Q156.31 44.02 156.60 42.69Q156.89 41.35 157.06 40.16Q157.24 38.98 157.24 37.82L157.24 37.82Q157.24 35.79 156.45 34.77Q155.67 33.76 154.22 33.76L154.22 33.76Q151.50 33.76 148.51 37.26Q145.52 40.77 142.82 48.89Q140.13 57.01 138.45 70.01L138.45 70.01Q138.04 73.49 137.03 74.67Q136.01 75.86 133.75 75.86L133.75 75.86Q131.78 75.86 130.88 74.94Q129.98 74.01 129.98 71.46L129.98 71.46Q129.98 69.08 130.62 65.22Q131.25 61.36 132.24 56.14L132.24 56.14Q134.91 42.11 134.91 38.05L134.91 38.05Q134.91 35.84 134.07 34.80Q133.23 33.76 131.54 33.76L131.54 33.76Q128.70 33.76 125.69 36.97Q122.67 40.19 119.80 48.40Q116.93 56.61 115.01 70.59L115.01 70.59Q114.61 73.54 113.83 74.70Q113.04 75.86 110.78 75.86L110.78 75.86ZM197.43 62.64Q198.19 62.64 198.62 63.34Q199.06 64.03 199.06 65.25L199.06 65.25Q199.06 67.57 197.95 68.85L197.95 68.85Q195.81 71.46 191.89 73.66Q187.98 75.86 183.51 75.86L183.51 75.86Q177.42 75.86 174.06 72.56Q170.69 69.25 170.69 63.51L170.69 63.51Q170.69 59.51 172.38 56.06Q174.06 52.61 177.05 50.58Q180.03 48.55 183.80 48.55L183.80 48.55Q187.17 48.55 189.20 50.55Q191.23 52.55 191.23 55.97L191.23 55.97Q191.23 59.97 188.35 62.84Q185.48 65.71 178.64 67.40L178.64 67.40Q180.09 70.06 184.15 70.06L184.15 70.06Q186.76 70.06 190.09 68.24Q193.43 66.41 195.87 63.45L195.87 63.45Q196.56 62.64 197.43 62.64L197.43 62.64ZM182.82 54.23Q180.67 54.23 179.19 56.72Q177.71 59.22 177.71 62.76L177.71 62.76L177.71 62.87Q181.13 62.06 183.11 60.44Q185.08 58.81 185.08 56.67L185.08 56.67Q185.08 55.56 184.47 54.90Q183.86 54.23 182.82 54.23L182.82 54.23ZM201.20 75.86Q197.61 75.86 195.46 73.25Q193.31 70.64 193.31 66.41L193.31 66.41Q193.31 61.77 195.46 57.62Q197.61 53.48 201.17 50.95Q204.74 48.43 208.74 48.43L208.74 48.43Q210.02 48.43 210.45 48.92Q210.89 49.42 211.18 50.69L211.18 50.69Q212.40 50.46 213.73 50.46L213.73 50.46Q216.57 50.46 216.57 52.49L216.57 52.49Q216.57 53.71 215.70 58.29L215.70 58.29Q214.37 64.96 214.37 67.57L214.37 67.57Q214.37 68.44 214.80 68.96Q215.24 69.48 215.93 69.48L215.93 69.48Q217.04 69.48 218.60 68.06Q220.17 66.64 222.84 63.45L222.84 63.45Q223.53 62.64 224.40 62.64L224.40 62.64Q225.16 62.64 225.59 63.34Q226.03 64.03 226.03 65.25L226.03 65.25Q226.03 67.57 224.92 68.85L224.92 68.85Q222.55 71.80 219.88 73.83Q217.21 75.86 214.72 75.86L214.72 75.86Q212.80 75.86 211.21 74.56Q209.61 73.25 208.80 70.99L208.80 70.99Q205.78 75.86 201.20 75.86L201.20 75.86ZM203.29 70.01Q204.57 70.01 205.73 68.50Q206.89 66.99 207.41 64.50L207.41 64.50L209.55 53.82Q207.12 53.88 205.06 55.65Q203.00 57.42 201.78 60.32Q200.56 63.22 200.56 66.47L200.56 66.47Q200.56 68.27 201.29 69.14Q202.01 70.01 203.29 70.01L203.29 70.01ZM243.31 62.64Q244.06 62.64 244.50 63.34Q244.93 64.03 244.93 65.25L244.93 65.25Q244.93 67.57 243.83 68.85L243.83 68.85Q241.34 71.92 238.41 73.89Q235.48 75.86 231.77 75.86L231.77 75.86Q226.66 75.86 224.20 71.22Q221.73 66.58 221.73 59.22L221.73 59.22Q221.73 52.14 223.56 43.09Q225.39 34.05 228.96 27.55Q232.52 21.05 237.45 21.05L237.45 21.05Q240.24 21.05 241.83 23.63Q243.43 26.22 243.43 31.03L243.43 31.03Q243.43 37.93 239.60 47.04Q235.77 56.14 229.22 65.08L229.22 65.08Q229.62 67.45 230.55 68.47Q231.48 69.48 232.99 69.48L232.99 69.48Q235.36 69.48 237.16 68.12Q238.96 66.76 241.74 63.45L241.74 63.45Q242.44 62.64 243.31 62.64L243.31 62.64ZM236.18 26.80Q234.84 26.80 233.16 31.61Q231.48 36.42 230.20 43.56Q228.93 50.69 228.81 57.25L228.81 57.25Q232.93 50.46 235.36 43.64Q237.80 36.83 237.80 31.20L237.80 31.20Q237.80 26.80 236.18 26.80L236.18 26.80ZM251.02 77.14Q248.01 77.14 246.41 75.75Q244.82 74.36 244.82 72.62L244.82 72.62Q244.82 71.11 245.92 70.01Q247.02 68.90 249.17 68.90L249.17 68.90Q249.92 68.90 250.94 69.05Q251.95 69.19 252.47 69.25L252.47 69.25Q252.42 67.74 251.81 66.41Q251.20 65.08 250.27 63.83Q249.34 62.58 248.53 61.65L248.53 61.65Q246.73 65.08 244.96 67.34Q243.19 69.60 241.11 71.63L241.11 71.63Q240.06 72.67 238.90 72.67L238.90 72.67Q237.97 72.67 237.39 72.01Q236.81 71.34 236.81 70.35L236.81 70.35Q236.81 69.19 237.63 68.21L237.63 68.21L238.38 67.28Q241.57 63.34 243.19 60.78L243.19 60.78Q244.18 59.10 245.51 56.29Q246.85 53.48 248.12 50.46L248.12 50.46Q249.23 47.91 252.71 47.91L252.71 47.91Q254.33 47.91 254.97 48.20Q255.61 48.49 255.61 49.13L255.61 49.13Q255.61 49.47 255.37 50.23Q255.14 50.98 254.74 51.74L254.74 51.74Q253.69 53.82 253.69 55.27L253.69 55.27Q253.69 56.14 254.30 57.19Q254.91 58.23 256.19 59.80L256.19 59.80Q258.04 62.23 259.00 63.94Q259.96 65.66 259.96 67.69L259.96 67.69Q259.96 68.27 259.84 69.31L259.84 69.31Q262.68 68.21 266.51 63.45L266.51 63.45Q267.21 62.64 268.08 62.64L268.08 62.64Q268.83 62.64 269.26 63.34Q269.70 64.03 269.70 65.25L269.70 65.25Q269.70 67.45 268.60 68.85L268.60 68.85Q265.70 72.44 263.06 73.75Q260.42 75.05 256.53 75.17L256.53 75.17Q254.21 77.14 251.02 77.14L251.02 77.14Z" transform="translate(0, 0)"/></g></svg></g></svg>