<svg xmlns="http://www.w3.org/2000/svg" viewBox="0 0 575 575" class="roots-wrapper"><g transform="rotate(0 0 0)"><svg data-root-id="0276564383081" xmlns="http://www.w3.org/2000/svg" xmlns:xlink="http://www.w3.org/1999/xlink" version="1.1" id="Logo" x="13" y="165.16" viewBox="51.28899383544922 48.0670051574707 180.88397216796875 187.03797912597656" enable-background="new 0 0 283.46 283.46" xml:space="preserve" height="259" width="250" preserveAspectRatio="xMinYMin" zoom="1" data-layer-role="icon" style="position: absolute; height: 259px; width: 249.997px; top: 165.158px; left: 13px;"><path fill="#F58345" d="M166.681,111.228c0-0.024,0-0.049,0-0.073h-49.056c7.616,5.487,22.973,13.32,49.056,13.938V111.228z" name="Layer 1" zoom="1" style="fill: rgb(245, 131, 69);"/><path fill="#FAA634" d="M169.997,131.765c-46.333,0-62.992-21.013-63.677-21.907l-4.095-5.335h104.639    c7.325,0,10.979-5.522,7.057-11.71c-15.146-23.887-41.812-39.746-72.189-39.746c-47.189,0-85.443,38.254-85.443,85.442    c0,5.423,0.528,10.72,1.493,15.861l70.363-0.004c0.606-2.734,1.964-5.249,3.993-7.278c2.812-2.813,6.549-4.361,10.525-4.361    l28.907,0.003c1.831,0,3.316,1.484,3.316,3.316c0,1.831-1.485,3.316-3.316,3.316l-28.907-0.004c-2.204,0-4.276,0.858-5.834,2.418    s-2.417,3.631-2.416,5.831c0.001,2.207,0.859,4.279,2.417,5.839c1.558,1.557,3.627,2.414,5.829,2.414c0.004,0,28.912,0,28.912,0    c1.831,0,3.316,1.485,3.316,3.316c0,1.832-1.485,3.316-3.316,3.316h-28.906c-3.979,0-7.714-1.548-10.524-4.357    c-1.993-1.993-3.337-4.458-3.959-7.138l-55.614,0.003c-7.327,0-11.798,5.791-8.797,12.474    c13.36,29.751,43.234,50.475,77.961,50.475c47.187,0,85.441-38.254,85.441-85.441c0-9.57-1.597-18.763-4.5-27.354h-49.358    c0,0.073,0,20.61,0,20.61H169.997z M171.567,160.986h-29.306c-1.831,0-3.316-1.485-3.316-3.316s1.485-3.316,3.316-3.316h29.306    c1.832,0,3.316,1.485,3.316,3.316S173.399,160.986,171.567,160.986z" name="Layer 2" zoom="1" style="fill: rgb(250, 166, 52);"/><path fill="#EC2227" d="M166.681,111.228c0-0.024,0-0.049,0-0.073h-49.056c7.616,5.487,22.973,13.32,49.056,13.938V111.228z" name="Layer 3" zoom="1" style="fill: rgb(236, 34, 39);"/><path fill="#EC2227" d="M212.453,138.509c0-9.698-1.957-18.939-5.49-27.354h-33.649c0,0.024,0,0.048,0,0.073v20.537h-3.316    c-46.333,0-62.992-21.013-63.677-21.907l-4.095-5.335h101.532c-12.021-21.892-35.287-36.735-62.026-36.735    c-39.06,0-70.723,31.664-70.723,70.722c0,5.636,0.575,10.909,1.623,15.861l55.513-0.004c0.606-2.734,1.964-5.249,3.993-7.278    c2.812-2.813,6.549-4.361,10.525-4.361l28.907,0.003c1.831,0,3.316,1.484,3.316,3.316c0,1.831-1.485,3.316-3.316,3.316    l-28.907-0.004c-2.204,0-4.276,0.858-5.834,2.418s-2.417,3.631-2.416,5.831c0.001,2.207,0.859,4.279,2.417,5.839    c1.558,1.557,3.627,2.414,5.829,2.414c0,0,0.002,0,0.004,0h28.907c1.831,0,3.316,1.485,3.316,3.316    c0,1.832-1.485,3.316-3.316,3.316h-28.906c-0.002,0-0.006,0-0.008,0c-3.971,0-7.706-1.548-10.516-4.357    c-1.993-1.993-3.337-4.458-3.959-7.138l-53.805,0.002c20.313,63.832,131.157,69.105,131.157,69.105    c-11.532-5.416-26.701-16.755-34.817-27.092C195.315,191.941,212.453,167.235,212.453,138.509z M171.567,160.986h-29.306    c-1.831,0-3.316-1.485-3.316-3.316s1.485-3.316,3.316-3.316h29.306c1.832,0,3.316,1.485,3.316,3.316    S173.399,160.986,171.567,160.986z" name="Layer 4" zoom="1" style="fill: rgb(236, 34, 39);"/></svg></g><g transform="rotate(0 0 0)"><svg data-root-id="3322390683175" xmlns="http://www.w3.org/2000/svg" x="274" y="251.8" viewBox="2.130000114440918 22.139999389648438 281.5199890136719 85.22000122070312" height="85.22" width="281.52" fontUrl="http://fonts.gstatic.com/s/pacifico/v16/FwZY7-Qmy14u9lezJ96A4sijpFu_.ttf" zoom="1" data-layer-role="brandName" style="position: absolute; top: 251.803px; left: 274px; width: 281.52px; height: 85.22px;"><g data-horizontal-grow="left" data-vertical-center="false" zoom="1" root="[object Object]" style="fill: rgb(0, 0, 0);"><path d="M10.43 79.79Q6.65 79.79 4.39 77.04Q2.13 74.30 2.13 69.84L2.13 69.84Q2.13 64.97 4.39 60.60Q6.65 56.24 10.40 53.59Q14.15 50.94 18.36 50.94L18.36 50.94Q19.70 50.94 20.16 51.45Q20.62 51.97 20.92 53.31L20.92 53.31Q22.20 53.07 23.61 53.07L23.61 53.07Q26.60 53.07 26.60 55.21L26.60 55.21Q26.60 56.49 25.68 61.31L25.68 61.31Q24.28 68.32 24.28 71.06L24.28 71.06Q24.28 71.98 24.74 72.53Q25.19 73.08 25.93 73.08L25.93 73.08Q27.08 73.08 28.73 71.58Q30.38 70.09 33.18 66.73L33.18 66.73Q33.92 65.88 34.83 65.88L34.83 65.88Q35.62 65.88 36.08 66.61Q36.54 67.34 36.54 68.63L36.54 68.63Q36.54 71.06 35.38 72.41L35.38 72.41Q32.88 75.52 30.07 77.65Q27.27 79.79 24.64 79.79L24.64 79.79Q22.63 79.79 20.95 78.42Q19.28 77.04 18.42 74.66L18.42 74.66Q15.25 79.79 10.43 79.79L10.43 79.79ZM12.63 73.63Q13.97 73.63 15.19 72.04Q16.41 70.45 16.96 67.83L16.96 67.83L19.21 56.61Q16.65 56.67 14.49 58.53Q12.32 60.39 11.04 63.44Q9.76 66.49 9.76 69.91L9.76 69.91Q9.76 71.80 10.52 72.71Q11.29 73.63 12.63 73.63L12.63 73.63ZM64.17 65.88Q64.97 65.88 65.42 66.61Q65.88 67.34 65.88 68.63L65.88 68.63Q65.88 71.06 64.72 72.41L64.72 72.41Q62.10 75.64 59.08 77.71Q56.06 79.79 52.22 79.79L52.22 79.79Q48.98 79.79 46.97 77.47L46.97 77.47Q43.49 79.73 39.71 79.79L39.71 79.79Q38.92 91.56 36.11 99.46Q33.31 107.36 27.88 107.36L27.88 107.36Q24.58 107.36 23.00 104.98Q21.41 102.60 21.41 98.39L21.41 98.39Q21.41 92.42 24.16 84.45Q26.90 76.49 32.63 66.92L32.63 66.92Q32.63 58.01 32.51 54.53L32.51 54.53Q32.45 52.77 33.92 51.73Q35.38 50.69 37.58 50.69L37.58 50.69Q38.86 50.69 39.44 51.21Q40.02 51.73 40.08 53.25L40.08 53.25Q40.08 54.78 40.14 55.51L40.14 55.51Q42.09 53.07 43.98 52.00Q45.87 50.94 48.01 50.94L48.01 50.94Q51.42 50.94 53.59 53.68Q55.75 56.43 55.75 60.88L55.75 60.88Q55.75 64.11 54.72 67.16Q53.68 70.21 51.85 72.71L51.85 72.71Q53.13 73.08 53.98 73.08L53.98 73.08Q56.00 73.08 57.83 71.61Q59.66 70.15 62.52 66.73L62.52 66.73Q63.26 65.88 64.17 65.88L64.17 65.88ZM40.02 73.93Q42.21 73.44 44.07 71.52Q45.93 69.60 47.03 66.76Q48.13 63.93 48.13 60.82L48.13 60.82Q48.13 58.99 47.40 58.04Q46.66 57.10 45.44 57.10L45.44 57.10Q43.25 57.10 40.14 61.73L40.14 61.73Q40.08 64.42 40.08 69.60L40.08 69.60Q40.08 72.41 40.02 73.93L40.02 73.93ZM28.36 101.38Q30.01 101.38 31.11 94.21Q32.21 87.05 32.51 76.37L32.51 76.37Q29.89 82.47 28.36 88.02Q26.84 93.57 26.84 97.36L26.84 97.36Q26.84 99.31 27.30 100.34Q27.75 101.38 28.36 101.38L28.36 101.38ZM93.51 65.88Q94.31 65.88 94.76 66.61Q95.22 67.34 95.22 68.63L95.22 68.63Q95.22 71.06 94.06 72.41L94.06 72.41Q91.44 75.64 88.42 77.71Q85.40 79.79 81.56 79.79L81.56 79.79Q78.32 79.79 76.31 77.47L76.31 77.47Q72.83 79.73 69.05 79.79L69.05 79.79Q68.26 91.56 65.45 99.46Q62.65 107.36 57.22 107.36L57.22 107.36Q53.92 107.36 52.34 104.98Q50.75 102.60 50.75 98.39L50.75 98.39Q50.75 92.42 53.50 84.45Q56.24 76.49 61.98 66.92L61.98 66.92Q61.98 58.01 61.85 54.53L61.85 54.53Q61.79 52.77 63.26 51.73Q64.72 50.69 66.92 50.69L66.92 50.69Q68.20 50.69 68.78 51.21Q69.36 51.73 69.42 53.25L69.42 53.25Q69.42 54.78 69.48 55.51L69.48 55.51Q71.43 53.07 73.32 52.00Q75.21 50.94 77.35 50.94L77.35 50.94Q80.76 50.94 82.93 53.68Q85.09 56.43 85.09 60.88L85.09 60.88Q85.09 64.11 84.06 67.16Q83.02 70.21 81.19 72.71L81.19 72.71Q82.47 73.08 83.33 73.08L83.33 73.08Q85.34 73.08 87.17 71.61Q89.00 70.15 91.87 66.73L91.87 66.73Q92.60 65.88 93.51 65.88L93.51 65.88ZM69.36 73.93Q71.55 73.44 73.41 71.52Q75.27 69.60 76.37 66.76Q77.47 63.93 77.47 60.82L77.47 60.82Q77.47 58.99 76.74 58.04Q76.01 57.10 74.79 57.10L74.79 57.10Q72.59 57.10 69.48 61.73L69.48 61.73Q69.42 64.42 69.42 69.60L69.42 69.60Q69.42 72.41 69.36 73.93L69.36 73.93ZM57.71 101.38Q59.35 101.38 60.45 94.21Q61.55 87.05 61.85 76.37L61.85 76.37Q59.23 82.47 57.71 88.02Q56.18 93.57 56.18 97.36L56.18 97.36Q56.18 99.31 56.64 100.34Q57.10 101.38 57.71 101.38L57.71 101.38ZM98.27 47.03Q95.71 47.03 94.43 45.84Q93.15 44.65 93.15 42.52L93.15 42.52Q93.15 40.38 94.82 38.95Q96.50 37.52 99.00 37.52L99.00 37.52Q101.26 37.52 102.66 38.61Q104.07 39.71 104.07 41.72L104.07 41.72Q104.07 44.16 102.48 45.60Q100.89 47.03 98.27 47.03L98.27 47.03ZM97.78 79.79Q93.82 79.79 92.02 76.98Q90.22 74.18 90.22 69.54L90.22 69.54Q90.22 66.80 90.92 62.49Q91.62 58.19 92.72 54.47L92.72 54.47Q93.27 52.52 94.18 51.79Q95.10 51.06 97.11 51.06L97.11 51.06Q100.22 51.06 100.22 53.13L100.22 53.13Q100.22 54.66 99.06 60.21L99.06 60.21Q97.60 66.92 97.60 69.30L97.60 69.30Q97.60 71.13 98.09 72.10Q98.58 73.08 99.73 73.08L99.73 73.08Q100.83 73.08 102.48 71.55Q104.13 70.03 106.87 66.73L106.87 66.73Q107.60 65.88 108.52 65.88L108.52 65.88Q109.31 65.88 109.77 66.61Q110.23 67.34 110.23 68.63L110.23 68.63Q110.23 71.06 109.07 72.41L109.07 72.41Q103.03 79.79 97.78 79.79L97.78 79.79ZM116.51 79.79Q114.25 79.79 113.28 78.78Q112.30 77.78 112.30 74.97L112.30 74.97Q112.30 73.08 112.70 70.12Q113.09 67.16 114.01 61.98L114.01 61.98Q115.59 52.40 116.51 45.38L116.51 45.38Q117.06 40.99 117.06 38.06L117.06 38.06Q117.06 35.32 115.05 35.32L115.05 35.32Q113.46 35.32 111.23 36.94Q109.01 38.55 106.32 42.09L106.32 42.09Q105.47 43.25 104.43 43.25L104.43 43.25Q103.58 43.25 102.94 42.43Q102.30 41.60 102.30 40.57L102.30 40.57Q102.30 39.59 102.69 38.58Q103.09 37.58 104.01 36.30L104.01 36.30Q106.93 32.21 110.53 29.98Q114.13 27.76 117.73 27.76L117.73 27.76Q121.09 27.76 122.88 29.89Q124.68 32.03 124.68 36.11L124.68 36.11Q124.68 37.76 124.38 39.99Q124.07 42.21 123.83 43.62Q123.59 45.02 123.46 45.57L123.46 45.57Q126.94 35.62 131.27 31.69Q135.60 27.76 140.79 27.76L140.79 27.76Q144.75 27.76 147.04 30.56Q149.33 33.37 149.33 38.49L149.33 38.49Q149.33 40.50 148.78 43.49L148.78 43.49Q151.83 35.08 155.92 31.42Q160.00 27.76 165.31 27.76L165.31 27.76Q169.58 27.76 171.87 30.50Q174.16 33.25 174.16 38.19L174.16 38.19Q174.16 40.87 173.36 44.71L173.36 44.71L169.64 62.16Q169.03 65.21 169.03 67.41L169.03 67.41Q169.03 69.97 170.22 71.25Q171.41 72.53 173.55 72.53L173.55 72.53Q175.56 72.53 177.48 71.19Q179.40 69.84 182.02 66.73L182.02 66.73Q182.76 65.88 183.67 65.88L183.67 65.88Q184.46 65.88 184.92 66.61Q185.38 67.34 185.38 68.63L185.38 68.63Q185.38 71.00 184.22 72.41L184.22 72.41Q181.05 76.25 177.94 78.02Q174.83 79.79 171.41 79.79L171.41 79.79Q166.22 79.79 163.30 76.71Q160.37 73.63 160.37 68.44L160.37 68.44Q160.37 64.84 161.83 58.01L161.83 58.01L164.27 46.85Q164.40 46.30 164.70 44.90Q165.00 43.49 165.19 42.24Q165.37 40.99 165.37 39.77L165.37 39.77Q165.37 37.64 164.55 36.57Q163.72 35.50 162.20 35.50L162.20 35.50Q159.33 35.50 156.19 39.19Q153.05 42.88 150.21 51.42Q147.38 59.96 145.61 73.63L145.61 73.63Q145.18 77.29 144.11 78.54Q143.05 79.79 140.67 79.79L140.67 79.79Q138.59 79.79 137.65 78.81Q136.70 77.84 136.70 75.15L136.70 75.15Q136.70 72.65 137.37 68.59Q138.04 64.54 139.08 59.05L139.08 59.05Q141.89 44.29 141.89 40.02L141.89 40.02Q141.89 37.70 141.00 36.60Q140.12 35.50 138.35 35.50L138.35 35.50Q135.36 35.50 132.19 38.89Q129.02 42.27 126.00 50.90Q122.98 59.54 120.96 74.24L120.96 74.24Q120.54 77.35 119.71 78.57Q118.89 79.79 116.51 79.79L116.51 79.79ZM207.64 65.88Q208.44 65.88 208.89 66.61Q209.35 67.34 209.35 68.63L209.35 68.63Q209.35 71.06 208.19 72.41L208.19 72.41Q205.94 75.15 201.82 77.47Q197.70 79.79 193.00 79.79L193.00 79.79Q186.60 79.79 183.06 76.31Q179.52 72.83 179.52 66.80L179.52 66.80Q179.52 62.59 181.29 58.96Q183.06 55.33 186.20 53.19Q189.34 51.06 193.31 51.06L193.31 51.06Q196.85 51.06 198.98 53.16Q201.12 55.27 201.12 58.87L201.12 58.87Q201.12 63.07 198.10 66.09Q195.08 69.11 187.88 70.88L187.88 70.88Q189.41 73.69 193.67 73.69L193.67 73.69Q196.42 73.69 199.93 71.77Q203.44 69.84 206.00 66.73L206.00 66.73Q206.73 65.88 207.64 65.88L207.64 65.88ZM192.27 57.04Q190.01 57.04 188.46 59.66Q186.90 62.28 186.90 66.00L186.90 66.00L186.90 66.12Q190.50 65.27 192.58 63.56Q194.65 61.85 194.65 59.60L194.65 59.60Q194.65 58.44 194.01 57.74Q193.37 57.04 192.27 57.04L192.27 57.04ZM211.61 79.79Q207.83 79.79 205.57 77.04Q203.31 74.30 203.31 69.84L203.31 69.84Q203.31 64.97 205.57 60.60Q207.83 56.24 211.58 53.59Q215.33 50.94 219.54 50.94L219.54 50.94Q220.88 50.94 221.34 51.45Q221.80 51.97 222.10 53.31L222.10 53.31Q223.38 53.07 224.78 53.07L224.78 53.07Q227.77 53.07 227.77 55.21L227.77 55.21Q227.77 56.49 226.86 61.31L226.86 61.31Q225.46 68.32 225.46 71.06L225.46 71.06Q225.46 71.98 225.91 72.53Q226.37 73.08 227.10 73.08L227.10 73.08Q228.26 73.08 229.91 71.58Q231.56 70.09 234.36 66.73L234.36 66.73Q235.09 65.88 236.01 65.88L236.01 65.88Q236.80 65.88 237.26 66.61Q237.72 67.34 237.72 68.63L237.72 68.63Q237.72 71.06 236.56 72.41L236.56 72.41Q234.06 75.52 231.25 77.65Q228.44 79.79 225.82 79.79L225.82 79.79Q223.81 79.79 222.13 78.42Q220.45 77.04 219.60 74.66L219.60 74.66Q216.43 79.79 211.61 79.79L211.61 79.79ZM213.81 73.63Q215.15 73.63 216.37 72.04Q217.59 70.45 218.14 67.83L218.14 67.83L220.39 56.61Q217.83 56.67 215.67 58.53Q213.50 60.39 212.22 63.44Q210.94 66.49 210.94 69.91L210.94 69.91Q210.94 71.80 211.70 72.71Q212.46 73.63 213.81 73.63L213.81 73.63ZM255.89 65.88Q256.69 65.88 257.15 66.61Q257.60 67.34 257.60 68.63L257.60 68.63Q257.60 71.06 256.44 72.41L256.44 72.41Q253.82 75.64 250.74 77.71Q247.66 79.79 243.76 79.79L243.76 79.79Q238.39 79.79 235.80 74.91Q233.20 70.03 233.20 62.28L233.20 62.28Q233.20 54.84 235.12 45.32Q237.05 35.81 240.80 28.98Q244.55 22.14 249.73 22.14L249.73 22.14Q252.66 22.14 254.34 24.86Q256.02 27.57 256.02 32.64L256.02 32.64Q256.02 39.89 251.99 49.47Q247.96 59.05 241.07 68.44L241.07 68.44Q241.50 70.94 242.47 72.01Q243.45 73.08 245.04 73.08L245.04 73.08Q247.54 73.08 249.43 71.64Q251.32 70.21 254.25 66.73L254.25 66.73Q254.98 65.88 255.89 65.88L255.89 65.88ZM248.39 28.18Q246.99 28.18 245.22 33.25Q243.45 38.31 242.11 45.81Q240.77 53.31 240.64 60.21L240.64 60.21Q244.98 53.07 247.54 45.90Q250.10 38.74 250.10 32.82L250.10 32.82Q250.10 28.18 248.39 28.18L248.39 28.18ZM264.01 81.13Q260.84 81.13 259.16 79.67Q257.48 78.20 257.48 76.37L257.48 76.37Q257.48 74.79 258.64 73.63Q259.80 72.47 262.06 72.47L262.06 72.47Q262.85 72.47 263.92 72.62Q264.98 72.77 265.53 72.83L265.53 72.83Q265.47 71.25 264.83 69.84Q264.19 68.44 263.21 67.13Q262.24 65.82 261.38 64.84L261.38 64.84Q259.49 68.44 257.63 70.82Q255.77 73.20 253.58 75.34L253.58 75.34Q252.48 76.43 251.26 76.43L251.26 76.43Q250.28 76.43 249.67 75.73Q249.06 75.03 249.06 73.99L249.06 73.99Q249.06 72.77 249.92 71.74L249.92 71.74L250.71 70.76Q254.06 66.61 255.77 63.93L255.77 63.93Q256.81 62.16 258.21 59.20Q259.62 56.24 260.96 53.07L260.96 53.07Q262.12 50.39 265.78 50.39L265.78 50.39Q267.48 50.39 268.16 50.69Q268.83 51.00 268.83 51.67L268.83 51.67Q268.83 52.03 268.58 52.83Q268.34 53.62 267.91 54.41L267.91 54.41Q266.81 56.61 266.81 58.13L266.81 58.13Q266.81 59.05 267.45 60.15Q268.09 61.24 269.44 62.89L269.44 62.89Q271.39 65.45 272.40 67.25Q273.40 69.05 273.40 71.19L273.40 71.19Q273.40 71.80 273.28 72.90L273.28 72.90Q276.27 71.74 280.29 66.73L280.29 66.73Q281.03 65.88 281.94 65.88L281.94 65.88Q282.73 65.88 283.19 66.61Q283.65 67.34 283.65 68.63L283.65 68.63Q283.65 70.94 282.49 72.41L282.49 72.41Q279.44 76.19 276.67 77.56Q273.89 78.93 269.80 79.06L269.80 79.06Q267.36 81.13 264.01 81.13L264.01 81.13Z" transform="translate(0, 0)"/></g></svg></g></svg>