<svg data-root-id="0276564383081" xmlns="http://www.w3.org/2000/svg" xmlns:xlink="http://www.w3.org/1999/xlink" version="1.0" id="Logo" x="94.97" y="207" viewBox="51.28899383544922 48.0670051574707 180.88397216796875 187.03797912597656" enable-background="new 0 0 283.46 283.46" xml:space="preserve" preserveAspectRatio="xMidYMid meet" zoom="1" data-layer-role="icon" ><path fill="#F58345" d="M166.681,111.228c0-0.024,0-0.049,0-0.073h-49.056c7.616,5.487,22.973,13.32,49.056,13.938V111.228z" name="Layer 1" zoom="1" style="fill: rgb(245, 131, 69);"></path><path fill="#FAA634" d="M169.997,131.765c-46.333,0-62.992-21.013-63.677-21.907l-4.095-5.335h104.639    c7.325,0,10.979-5.522,7.057-11.71c-15.146-23.887-41.812-39.746-72.189-39.746c-47.189,0-85.443,38.254-85.443,85.442    c0,5.423,0.528,10.72,1.493,15.861l70.363-0.004c0.606-2.734,1.964-5.249,3.993-7.278c2.812-2.813,6.549-4.361,10.525-4.361    l28.907,0.003c1.831,0,3.316,1.484,3.316,3.316c0,1.831-1.485,3.316-3.316,3.316l-28.907-0.004c-2.204,0-4.276,0.858-5.834,2.418    s-2.417,3.631-2.416,5.831c0.001,2.207,0.859,4.279,2.417,5.839c1.558,1.557,3.627,2.414,5.829,2.414c0.004,0,28.912,0,28.912,0    c1.831,0,3.316,1.485,3.316,3.316c0,1.832-1.485,3.316-3.316,3.316h-28.906c-3.979,0-7.714-1.548-10.524-4.357    c-1.993-1.993-3.337-4.458-3.959-7.138l-55.614,0.003c-7.327,0-11.798,5.791-8.797,12.474    c13.36,29.751,43.234,50.475,77.961,50.475c47.187,0,85.441-38.254,85.441-85.441c0-9.57-1.597-18.763-4.5-27.354h-49.358    c0,0.073,0,20.61,0,20.61H169.997z M171.567,160.986h-29.306c-1.831,0-3.316-1.485-3.316-3.316s1.485-3.316,3.316-3.316h29.306    c1.832,0,3.316,1.485,3.316,3.316S173.399,160.986,171.567,160.986z" name="Layer 2" zoom="1" style="fill: rgb(250, 166, 52);"></path><path fill="#EC2227" d="M166.681,111.228c0-0.024,0-0.049,0-0.073h-49.056c7.616,5.487,22.973,13.32,49.056,13.938V111.228z" name="Layer 3" zoom="1" style="fill: rgb(236, 34, 39);"></path><path fill="#EC2227" d="M212.453,138.509c0-9.698-1.957-18.939-5.49-27.354h-33.649c0,0.024,0,0.048,0,0.073v20.537h-3.316    c-46.333,0-62.992-21.013-63.677-21.907l-4.095-5.335h101.532c-12.021-21.892-35.287-36.735-62.026-36.735    c-39.06,0-70.723,31.664-70.723,70.722c0,5.636,0.575,10.909,1.623,15.861l55.513-0.004c0.606-2.734,1.964-5.249,3.993-7.278    c2.812-2.813,6.549-4.361,10.525-4.361l28.907,0.003c1.831,0,3.316,1.484,3.316,3.316c0,1.831-1.485,3.316-3.316,3.316    l-28.907-0.004c-2.204,0-4.276,0.858-5.834,2.418s-2.417,3.631-2.416,5.831c0.001,2.207,0.859,4.279,2.417,5.839    c1.558,1.557,3.627,2.414,5.829,2.414c0,0,0.002,0,0.004,0h28.907c1.831,0,3.316,1.485,3.316,3.316    c0,1.832-1.485,3.316-3.316,3.316h-28.906c-0.002,0-0.006,0-0.008,0c-3.971,0-7.706-1.548-10.516-4.357    c-1.993-1.993-3.337-4.458-3.959-7.138l-53.805,0.002c20.313,63.832,131.157,69.105,131.157,69.105    c-11.532-5.416-26.701-16.755-34.817-27.092C195.315,191.941,212.453,167.235,212.453,138.509z M171.567,160.986h-29.306    c-1.831,0-3.316-1.485-3.316-3.316s1.485-3.316,3.316-3.316h29.306c1.832,0,3.316,1.485,3.316,3.316    S173.399,160.986,171.567,160.986z" name="Layer 4" zoom="1" style="fill: rgb(236, 34, 39);"></path></svg>